<svg width="34" height="28" viewBox="0 0 34 28" fill="none" xmlns="http://www.w3.org/2000/svg">
<path d="M28.7544 0.666992H5.35578C4.02599 0.666992 2.75066 1.19378 1.81036 2.13146C0.870055 3.06914 0.341797 4.34091 0.341797 5.66699V22.3337C0.341797 23.6597 0.870055 24.9315 1.81036 25.8692C2.75066 26.8069 4.02599 27.3337 5.35578 27.3337H28.7544C30.0842 27.3337 31.3595 26.8069 32.2998 25.8692C33.2401 24.9315 33.7684 23.6597 33.7684 22.3337V5.66699C33.7684 4.34091 33.2401 3.06914 32.2998 2.13146C31.3595 1.19378 30.0842 0.666992 28.7544 0.666992ZM27.6346 4.00033L17.0551 11.917L6.47557 4.00033H27.6346ZM28.7544 24.0003H5.35578C4.91252 24.0003 4.48741 23.8247 4.17398 23.5122C3.86054 23.1996 3.68445 22.7757 3.68445 22.3337V6.08366L16.0523 15.3337C16.3416 15.55 16.6935 15.667 17.0551 15.667C17.4167 15.667 17.7686 15.55 18.0579 15.3337L30.4257 6.08366V22.3337C30.4257 22.7757 30.2496 23.1996 29.9362 23.5122C29.6228 23.8247 29.1977 24.0003 28.7544 24.0003Z" fill="white"/>
</svg>
