<svg width="34" height="34" viewBox="0 0 34 34" fill="none" xmlns="http://www.w3.org/2000/svg">
<path d="M26.0803 33.667C19.2567 33.6582 12.7152 30.9512 7.89019 26.1397C3.0652 21.3282 0.350641 14.8049 0.341797 8.00035C0.341797 5.96703 1.15179 4.01698 2.59359 2.5792C4.03539 1.14142 5.99089 0.333687 8.02991 0.333687C8.46168 0.330407 8.89273 0.369484 9.31683 0.450353C9.72683 0.510854 10.1299 0.611336 10.5202 0.750353C10.7947 0.846402 11.0393 1.01224 11.2299 1.23147C11.4204 1.45071 11.5502 1.71573 11.6066 2.00035L13.8963 12.0004C13.958 12.2718 13.9506 12.5543 13.8747 12.8222C13.7987 13.09 13.6568 13.3346 13.4617 13.5337C13.2445 13.767 13.2277 13.7837 11.172 14.8504C12.8183 18.4518 15.7067 21.344 19.3114 23.0004C20.3977 20.9337 20.4145 20.917 20.6484 20.7004C20.8481 20.5058 21.0934 20.3643 21.362 20.2886C21.6305 20.2129 21.9139 20.2055 22.1861 20.267L32.214 22.5504C32.4903 22.6143 32.7457 22.7473 32.9563 22.9368C33.1668 23.1263 33.3255 23.3661 33.4174 23.6337C33.5585 24.0293 33.6647 24.4364 33.7349 24.8504C33.8022 25.2692 33.8357 25.6928 33.8352 26.117C33.8044 28.1417 32.9716 30.0719 31.5187 31.4864C30.0658 32.901 28.1107 33.6849 26.0803 33.667Z" fill="white"/>
</svg>
